<svg class="t-sociallinks__svg" role="presentation" width="30px" height="30px" viewBox="0 0 100 100" fill="none"
     xmlns="http://www.w3.org/2000/svg">
    <path fill-rule="evenodd" clip-rule="evenodd"
          d="M50 100c27.614 0 50-22.386 50-50S77.614 0 50 0 0 22.386 0 50s22.386 50 50 50Zm19.546-71.18c-1.304-1.184-6.932-4.72-18.674-4.772 0 0-13.905-.913-20.655 5.2-3.757 3.71-5.022 9.226-5.161 15.957l-.016.691c-.156 6.885-.433 19.013 11.47 22.32l-.053 10.386c0 .587.093.988.428 1.071.241.059.602-.066.91-.372 1.968-1.978 8.271-9.582 8.271-9.582 8.457.553 15.186-1.117 15.91-1.354.17-.054.415-.111.72-.183 2.752-.641 10.37-2.417 11.776-13.773 1.613-13.003-.594-21.88-4.926-25.589ZM48.664 31.51a.908.908 0 0 1 .914-.901c4.585.032 8.468 1.56 11.584 4.597 3.146 3.067 4.696 7.24 4.736 12.404a.908.908 0 1 1-1.815.013c-.037-4.79-1.461-8.458-4.188-11.117-2.757-2.688-6.18-4.053-10.33-4.082a.908.908 0 0 1-.9-.914Zm2.374 2.932a1.15 1.15 0 1 0-.168 2.294c2.918.213 5.067 1.184 6.597 2.854 1.541 1.684 2.304 3.784 2.248 6.389a1.15 1.15 0 0 0 2.3.05c.067-3.133-.87-5.826-2.851-7.992-2.01-2.193-4.758-3.349-8.126-3.595Zm1.156 4.454a.908.908 0 1 0-.095 1.812c1.335.07 2.223.458 2.8 1.054.58.6.964 1.535 1.033 2.936a.908.908 0 0 0 1.813-.09c-.083-1.677-.558-3.09-1.542-4.108-.987-1.021-2.368-1.519-4.009-1.604Zm1.805 15.633c-.594.732-1.698.64-1.698.64-8.066-2.06-10.224-10.23-10.224-10.23s-.097-1.104.638-1.698l1.458-1.158c.722-.557 1.183-1.908.448-3.228a34.125 34.125 0 0 0-1.839-2.881c-.641-.877-2.136-2.671-2.142-2.677-.72-.85-1.78-1.048-2.898-.466a.045.045 0 0 0-.012.003l-.011.003a12.062 12.062 0 0 0-2.986 2.432c-.69.833-1.085 1.65-1.185 2.45a1.57 1.57 0 0 0-.022.357c-.003.354.05.706.16 1.042l.038.026c.348 1.236 1.22 3.296 3.114 6.731a40.117 40.117 0 0 0 3.735 5.654c.703.89 1.456 1.74 2.256 2.543l.029.03.057.056.085.086.086.085.086.086a29.64 29.64 0 0 0 2.543 2.255 40.072 40.072 0 0 0 5.655 3.736c3.433 1.894 5.495 2.766 6.73 3.114l.026.038c.336.11.688.164 1.041.16.12.006.24-.001.358-.022.802-.095 1.618-.49 2.448-1.184a.032.032 0 0 0 .007-.004.101.101 0 0 0 .003-.004l.012-.008a12.09 12.09 0 0 0 2.41-2.97l.003-.01a.054.054 0 0 0 .002-.013c.583-1.117.385-2.177-.47-2.899l-.189-.154c-.484-.4-1.783-1.47-2.487-1.988a34.12 34.12 0 0 0-2.879-1.838c-1.32-.736-2.669-.275-3.228.448L54 54.528Z"
          fill="#f7683e"></path>
</svg>